<?xml version="1.0" standalone="no"?>
<!DOCTYPE svg PUBLIC "-//W3C//DTD SVG 20010904//EN"
 "http://www.w3.org/TR/2001/REC-SVG-20010904/DTD/svg10.dtd">
<svg version="1.0" xmlns="http://www.w3.org/2000/svg"
 width="720.000000pt" height="720.000000pt" viewBox="0 0 720.000000 720.000000"
 preserveAspectRatio="xMidYMid meet">
<metadata>
Created by potrace 1.14, written by Peter Selinger 2001-2017
</metadata>
<g transform="translate(0.000000,720.000000) scale(0.100000,-0.100000)"
fill="#000000" stroke="none">
<path d="M3246 7192 c-84 -4 -108 -18 -141 -85 -50 -103 -59 -207 -59 -652 0
-366 5 -436 36 -501 39 -83 42 -84 321 -84 l244 0 0 -2725 c0 -1499 -3 -2726
-6 -2726 -3 -1 -52 -2 -108 -3 l-103 -2 0 50 c-1 28 -2 947 -3 2041 l-2 1990
-185 2 c-102 0 -187 -3 -190 -7 -3 -5 -5 -941 -4 -2082 1 -1986 2 -2098 28
-2214 14 -66 33 -106 66 -145 l38 -44 354 -3 354 -3 34 23 c44 30 75 93 94
193 13 71 15 390 15 2800 0 1496 -4 2747 -9 2780 -4 33 -11 83 -14 112 -3 28
-8 57 -11 65 -2 7 -6 31 -9 53 -18 162 -85 274 -165 276 -20 0 -116 1 -213 1
l-178 0 -1 46 c0 57 0 325 0 368 l1 30 233 0 232 0 -1 74 c-1 119 -21 226 -58
312 -29 66 -34 68 -291 65 -127 -1 -261 -3 -299 -5z"/>
<path d="M1434 5962 l-41 -3 0 -50 c0 -53 3 -55 75 -49 l22 1 -2 -731 -3 -732
-105 -1 -105 0 -1 517 c-1 284 -4 519 -7 522 -4 5 -231 8 -349 5 l-28 -1 0
-529 c0 -313 4 -540 10 -555 5 -14 24 -33 42 -42 28 -15 78 -17 438 -17 359 0
409 2 437 17 18 9 37 25 43 35 14 27 14 1535 0 1561 -20 38 -51 44 -220 50
-91 3 -184 4 -206 2z"/>
<path d="M1937 5958 c-7 -4 -12 -27 -12 -50 l0 -43 45 -5 45 -5 0 -50 0 -50
-45 -5 -45 -5 -1 -47 -1 -48 46 0 47 0 -1 -619 c0 -341 -3 -622 -6 -626 -4 -3
-24 -7 -45 -8 -38 -2 -38 -2 -40 -45 0 -23 4 -46 9 -49 8 -5 961 -8 1058 -4
15 1 17 33 17 345 l-1 345 -33 -2 c-39 -2 -39 -2 -54 -117 -28 -207 -91 -402
-148 -453 -18 -17 -40 -19 -192 -20 -93 0 -173 3 -176 6 -8 8 -8 1227 0 1235
4 3 24 -12 46 -33 56 -55 112 -168 122 -245 4 -31 15 -40 51 -40 l27 0 0 215
0 215 -124 0 c-138 0 -135 -2 -128 72 l4 38 177 0 178 0 46 -44 c26 -24 47
-47 47 -52 0 -4 6 -15 14 -23 16 -18 56 -114 62 -151 10 -54 14 -60 49 -60
l34 0 -1 215 -1 215 -281 0 c-155 0 -393 2 -529 3 -137 1 -254 -1 -260 -5z"/>
<path d="M4085 5960 c-32 -4 -40 -9 -41 -27 0 -17 7 -22 40 -27 23 -4 57 -18
77 -31 l37 -24 0 -734 c0 -821 -3 -784 69 -808 27 -8 144 -12 420 -12 345 0
388 2 423 18 21 10 42 25 47 34 4 9 10 351 13 761 l5 744 34 23 c19 13 52 26
73 29 32 6 38 11 38 30 0 24 -1 24 -117 24 -323 1 -406 1 -410 -4 -2 -2 -4
-353 -4 -779 l0 -775 -104 0 -104 -1 1 777 c0 427 -4 778 -9 779 -16 5 -448 8
-488 3z"/>
<path d="M5421 5952 c-72 -11 -97 -58 -95 -171 2 -126 7 -128 330 -129 126 0
239 -1 251 -1 l22 -1 -1 -620 c0 -447 -4 -622 -12 -628 -6 -4 -55 -7 -108 -8
l-98 -1 -1 36 c0 20 -1 232 -2 471 l-2 435 -187 0 c-124 1 -188 -3 -189 -10
-1 -5 -2 -217 -3 -470 -2 -520 -5 -503 71 -537 44 -19 66 -20 417 -20 393 -1
443 4 477 45 17 21 18 59 19 651 l0 629 -27 42 c-28 45 -66 73 -111 82 -15 3
-125 6 -244 6 l-218 0 0 51 0 52 235 -1 c210 0 235 2 235 16 0 22 -43 67 -76
79 -25 10 -624 11 -683 2z"/>
</g>
</svg>
